<svg width="28" height="28" viewBox="0 0 28 28" fill="none" xmlns="http://www.w3.org/2000/svg">
<path d="M25.7239 0.0809559L8.22555 5.24868C7.87035 5.36026 7.55999 5.58223 7.33958 5.88231C7.11918 6.1824 7.00022 6.54496 7 6.91729V21.214C6.42696 21.0749 5.83967 21.0029 5.25 20.9996C2.35156 20.9996 0 22.567 0 24.4998C0 26.4326 2.35156 28 5.25 28C8.14844 28 10.5 26.4326 10.5 24.4998V11.7197L24.5 7.61788V17.7143C23.927 17.5747 23.3397 17.5026 22.75 17.4994C19.8516 17.4994 17.5 19.0668 17.5 20.9996C17.5 22.9324 19.8516 24.4998 22.75 24.4998C25.6484 24.4998 28 22.9329 28 20.9996V1.74847C27.9997 1.47373 27.9348 1.20291 27.8105 0.957921C27.6861 0.712935 27.5058 0.500669 27.2842 0.338304C27.0626 0.175939 26.8058 0.0680361 26.5348 0.0233275C26.2637 -0.0213812 25.9859 -0.00163912 25.7239 0.0809559Z" fill="#1B42D0"/>
</svg>
